<mxfile host="app.diagrams.net" modified="2023-05-30T08:19:36.200Z" agent="Mozilla/5.0 (Macintosh; Intel Mac OS X 10_15_7) AppleWebKit/537.36 (KHTML, like Gecko) Chrome/113.0.0.0 Safari/537.36" version="21.3.5" etag="zlMgJcwRun2Sw6vkcfgq" type="github">
  <diagram name="Page-1" id="pbMHUCseezWOih_24ngP">
    <mxGraphModel>
      <root>
        <mxCell id="0" />
        <mxCell id="1" parent="0" />
      </root>
    </mxGraphModel>
  </diagram>
</mxfile>
